# xmcd
#
# Track frame offsets: 
#        150
#        11432
#        25593
#        36667
#        49041
#        62407
#        74849
#        82826
#        97740
#        107953
#
# Disc length: 1603 seconds
#
# Revision: 0
# Processed by: cddbd v1.5.2PL0 Copyright (c) Steve Scherf et al.
# Submitted via: ExactAudioCopy v0.95b3
#
DISCID=7806410a
DTITLE=Wells, Kitty - Dust On The Bible
DYEAR=2003
DGENRE=Country
TTITLE0=Dust On The Bible
TTITLE1=How Far Is Heaven
TTITLE2=Matthew 24
TTITLE3=In The Sweet By And By
TTITLE4=Amazing Grace
TTITLE5=Gathering Flowers For The Master's Bouquet
TTITLE6=Church In The Wildwood
TTITLE7=Rank Strangers
TTITLE8=He's Got The Whole World In His Hands
TTITLE9=I'm Gonna Move
EXTD=
EXTT0=
EXTT1=
EXTT2=
EXTT3=
EXTT4=
EXTT5=
EXTT6=
EXTT7=
EXTT8=
EXTT9=
PLAYORDER=
